<svg width="114" height="31" viewBox="0 0 114 31" fill="none" xmlns="http://www.w3.org/2000/svg">
  <g clip-path="url(#clip0_10_267)">
    <path d="M34.352 6.62971L32.456 20.1177H28.784L30.68 6.62971H26L26.432 3.65371H39.44L39.008 6.62971H34.352Z" fill="black"/>
    <path d="M48.8394 7.85371C47.9754 13.8377 47.5434 16.9897 47.5434 17.3097C47.5434 17.5177 47.5914 17.6777 47.6874 17.7897C47.7994 17.9017 47.9514 17.9577 48.1434 17.9577C48.3034 17.9577 48.4794 17.9257 48.6714 17.8617C48.8634 17.7977 49.0234 17.7177 49.1514 17.6217L48.8154 19.8537C48.5434 19.9977 48.2074 20.1177 47.8074 20.2137C47.4234 20.3097 47.0394 20.3577 46.6554 20.3577C45.0874 20.3577 44.2394 19.7497 44.1114 18.5337C43.6314 19.0937 43.0634 19.5417 42.4074 19.8777C41.7674 20.1977 41.0794 20.3577 40.3434 20.3577C39.0154 20.3577 37.9914 19.9337 37.2714 19.0857C36.5674 18.2377 36.2154 17.0537 36.2154 15.5337C36.2154 14.0777 36.4474 12.7497 36.9114 11.5497C37.3914 10.3497 38.0634 9.39771 38.9274 8.69371C39.8074 7.97371 40.8314 7.61371 41.9994 7.61371C42.7354 7.61371 43.3914 7.77371 43.9674 8.09371C44.5594 8.39771 45.0154 8.82171 45.3354 9.36571H45.4794L46.2714 7.85371H48.8394ZM44.3274 15.0537C44.5514 13.4537 44.6634 12.5657 44.6634 12.3897C44.6634 11.6697 44.4874 11.1177 44.1354 10.7337C43.7834 10.3497 43.3114 10.1577 42.7194 10.1577C42.0314 10.1577 41.4394 10.4057 40.9434 10.9017C40.4634 11.3977 40.1514 12.1177 40.0074 13.0617C39.7834 14.6617 39.6714 15.5497 39.6714 15.7257C39.6714 16.4457 39.8474 16.9977 40.1994 17.3817C40.5514 17.7657 41.0234 17.9577 41.6154 17.9577C42.2874 17.9577 42.8714 17.7097 43.3674 17.2137C43.8634 16.7177 44.1834 15.9977 44.3274 15.0537Z" fill="black"/>
    <path d="M53.207 2.83771H56.759L56.375 5.59771H52.823L53.207 2.83771ZM50.807 20.1177L52.535 7.85371H56.039L54.311 20.1177H50.807Z" fill="black"/>
    <path d="M57.4867 20.1177L59.9107 2.83771H63.4147L60.9907 20.1177H57.4867Z" fill="black"/>
    <path d="M70.3338 3.65371L69.2778 11.1897L76.2618 3.65371H80.4138L77.5578 6.70171L73.8858 10.5897L80.0335 24.1133H75.8335L71.0778 13.4457L68.6058 15.8217L68.0058 20.1177H64.3818L66.7098 3.65371H70.3338Z" fill="black"/>
    <path d="M81.0911 2.83768H84.6431L84.2591 5.59768H80.7071L81.0911 2.83768ZM79.1158 16.8123L80.4191 7.85368H83.9231L82.2115 20.0578H80.6215L79.1158 16.8123Z" fill="black"/>
    <path d="M88.9118 13.0137C88.6878 14.6777 88.5758 15.5817 88.5758 15.7257C88.5758 16.3817 88.7438 16.9177 89.0798 17.3337C89.4158 17.7497 89.8958 17.9577 90.5198 17.9577C91.2558 17.9577 91.8638 17.7337 92.3438 17.2857C92.8398 16.8217 93.1518 16.1417 93.2798 15.2457H96.5918C96.4318 16.3817 96.0558 17.3337 95.4638 18.1017C94.8718 18.8697 94.1438 19.4377 93.2798 19.8057C92.4318 20.1737 91.5278 20.3577 90.5678 20.3577H90.1838C88.5838 20.3577 87.3278 19.9337 86.4158 19.0857C85.5198 18.2377 85.0718 17.0457 85.0718 15.5097C85.0718 14.1337 85.3198 12.8457 85.8158 11.6457C86.3278 10.4457 87.0958 9.47768 88.1198 8.74168C89.1598 7.98968 90.4478 7.61368 91.9838 7.61368H92.3678C93.2318 7.61368 94.0158 7.78168 94.7198 8.11768C95.4238 8.45368 95.9758 8.94968 96.3758 9.60568C96.7918 10.2617 96.9998 11.0377 96.9998 11.9337C96.9998 12.2857 96.9838 12.5577 96.9518 12.7497H93.4718C93.5038 12.4617 93.5198 12.2457 93.5198 12.1017C93.5198 11.4457 93.3678 10.9337 93.0638 10.5657C92.7598 10.1977 92.2958 10.0137 91.6718 10.0137C90.9518 10.0137 90.3358 10.3017 89.8238 10.8777C89.3278 11.4537 89.0238 12.1657 88.9118 13.0137Z" fill="black"/>
    <path d="M105.527 20.1177L103.175 16.1097L101.639 17.4297L101.255 20.1177H97.7505L100.175 2.83768H103.679L102.167 13.5657L107.279 7.85368H111.239L105.911 13.6137L109.703 20.1177H105.527Z" fill="black"/>
    <g clip-path="url(#clip1_10_267)">
      <path d="M13.359 4.10476L9.1875 2.34785L16.1753 1.14671L13.359 4.10476Z" fill="black"/>
      <path d="M4.25 5.25217L0.297796 9.23315L5.63006 8.71024L15.1969 10.5068L19.375 5.5644L13.4317 6.3194L4.25 5.25217Z" fill="black"/>
      <path d="M5.75 11.1588L20.875 15.8463L25.125 28.3463L18.9375 29.2213L16.875 19.0963L8.25 16.7213L12.9375 24.4713L9.1875 25.3463L0 14.1588L5.75 11.1588Z" fill="black"/>
    </g>
  </g>
  <defs>
    <clipPath id="clip0_10_267">
      <rect width="114" height="30" fill="white" transform="translate(0 0.800049)"/>
    </clipPath>
    <clipPath id="clip1_10_267">
      <rect width="26" height="29" fill="white" transform="translate(0 1.14673)"/>
    </clipPath>
  </defs>
</svg>
