<svg width="148" height="108" viewBox="0 0 148 108" fill="none" xmlns="http://www.w3.org/2000/svg">
  <path fill-rule="evenodd" clip-rule="evenodd" d="M100.941 7.63094C107.421 5.05311 114.818 4.75313 121.466 9.50157C130.586 16.0157 130.125 27.0647 127.496 35.8848C124.743 45.1225 118.807 55.3154 111.891 64.6227C104.917 74.0086 96.5856 82.9754 88.5862 89.7327C84.5886 93.1095 80.5501 96.0397 76.6972 98.1965C72.9745 100.28 68.8266 101.985 64.7468 102.189C56.9324 102.58 49.706 98.1717 44.0444 92.9549C38.1722 87.5439 32.8215 80.2148 28.6089 72.3914C24.3907 64.5576 21.1253 55.8788 19.6744 47.6107C18.2545 39.5186 18.4076 30.8354 22.2637 23.8243C24.9419 18.9549 28.9105 14.7993 34.617 14.1904C40.0565 13.6099 44.4312 16.5812 47.241 19.2218C52.9567 24.5933 57.4663 33.5224 59.8965 39.598L51.0222 42.577C48.7858 36.986 47.4889 31.2877 42.5847 26.2849C40.3373 23.9923 38.6401 22.091 35.4317 21.9777C32.0777 21.8594 29.3405 25.8731 28.6089 27.2033C26.965 30.1921 26.8587 35.8287 27.4328 40.8215C28.6089 51.0509 32.4975 58.9108 36.1543 65.702C39.8167 72.5036 44.1771 78.9818 51.0222 83.952C54.7795 86.6801 58.7626 89.0453 64.0476 88.2064C66.4479 87.8255 66.8825 87.6463 69.8589 85.9802C72.7052 84.3869 76.0027 82.0359 79.5519 79.0377C86.6462 73.045 94.2528 64.8868 100.654 56.2727C107.113 47.58 115.683 33.4561 117.773 26.4438C119.988 19.0139 118.402 16.4379 117.022 15.452C115.27 14.2005 113.175 13.8588 109.81 15.1977C106.178 16.6424 101.875 19.8132 97.2448 24.4514C85.8521 36.5884 78.3245 55.6135 74.3972 63.327L58.2682 54.8162C63.7744 44.8362 73.1922 30.471 83.6432 20.0022C88.8295 14.8071 94.727 10.1029 100.941 7.63094Z" fill="black"/>
</svg>
