<svg width="132" height="105" viewBox="0 0 132 105" fill="none" xmlns="http://www.w3.org/2000/svg">
  <path fill-rule="evenodd" clip-rule="evenodd" d="M93.785 75.8303C94.9981 79.7072 97.0845 82.2266 99.9119 82.155C103.929 82.0532 109.149 78.7799 112.663 74.0489C116.946 68.2827 122.308 56.3526 118.196 52.8555C116.446 51.3673 110.262 55.06 110.262 55.06L109.463 43.3269C117.34 41.0556 123.309 42.3278 125.701 44.2778C128.326 46.417 129.499 48.6318 129.729 52.1025C130.159 58.5895 127.207 68.3507 122.188 76.0946C117.218 83.7628 109.163 90.9696 98.7794 89.3451C92.3436 88.3383 88.5453 83.5325 86.8133 77.997C85.1001 72.5216 85.1799 65.8421 86.6092 59.4928C88.0436 53.1211 90.9194 46.7101 95.1945 41.817C99.503 36.8856 103.957 32.9425 112.663 30.8534L112.663 38.1316C108.31 38.9823 103.986 42.8376 100.702 46.5965C97.3843 50.3938 94.9631 55.6301 93.7349 61.0861C92.5016 66.5647 92.5533 71.8935 93.785 75.8303ZM36.1284 40.1822C38.8735 39.9699 41.6322 40.8104 44.2835 42.66C46.5388 44.2334 47.7552 46.6099 48.3414 49.0218C48.9258 51.4269 48.9569 54.1288 48.6456 56.8492C48.0221 62.2968 45.946 68.4987 43.0058 74.0489C40.0825 79.5672 36.1071 84.8145 31.4294 88.039C26.6262 91.3501 20.2917 93.5349 14.2599 90.4662C6.18128 86.3562 2.73518 79.5057 2.73523 67.5054C2.73527 57.4733 6.7125 47.5444 11.423 41.817L22.0617 47.9482C18.0783 52.7916 14.0763 59.4609 12.9038 66.5942C11.7252 73.7651 13.4931 80.1926 18.4512 83.0377C21.1822 84.6048 24.0419 84.282 27.2751 82.0532C30.6339 79.7378 33.9287 75.5949 36.5478 70.6508C39.15 65.7385 40.8884 60.4057 41.3898 56.0244C41.6409 53.8304 41.5619 52.0443 41.2437 50.7351C40.9273 49.4328 40.4484 48.8687 40.0956 48.6226C38.5738 47.5609 37.4637 47.379 36.6933 47.4386C35.878 47.5016 34.9857 47.8729 34.0131 48.6713C31.9636 50.3536 30.3013 53.3335 29.4601 55.6961L22.5777 53.2622C23.6492 50.2527 25.8992 45.9025 29.3703 43.0532C31.158 41.5858 33.4281 40.391 36.1284 40.1822Z" fill="black"/>
  <path fill-rule="evenodd" clip-rule="evenodd" d="M56.2736 0.667786H86.4595L84.6114 14.7167L78.6474 13.4692L78.9539 6.74116H60.3887L56.2485 16.9858L50.5959 14.7167L56.2736 0.667786Z" fill="black"/>
  <path fill-rule="evenodd" clip-rule="evenodd" d="M91.6992 32.3327L3.48606 30.0224V21.6676H93.7349L91.6992 32.3327ZM122.679 104.332H35.1357L38.3335 94.2168L122.971 98.2657L122.679 104.332Z" fill="black"/>
  <path fill-rule="evenodd" clip-rule="evenodd" d="M77.3143 81.18V68.7405H54.4984L53.2366 81.18H58.358L59.2987 73.3396H72.6996V81.18H77.3143Z" fill="black"/>
</svg>
